# xmcd
#
# Track frame offsets: 
#        150
#        10632
#        29607
#        46743
#        83565
#        113560
#        133190
#
# Disc length: 2159 seconds
#
# Revision: 0
# Processed by: cddbd v1.5.2PL0 Copyright (c) Steve Scherf et al.
# Submitted via: ExactAudioCopy v1.0b4
#
DISCID=49086d07
DTITLE=Roy Buchanan - Live Stock (LP)
DYEAR=1975
DGENRE=Blues
TTITLE0=Reelin' And Rockin'
TTITLE1=Hot Cha
TTITLE2=Further On Up The Road
TTITLE3=Roy's Bluz
TTITLE4=Can I Change My Mind
TTITLE5=I'm A Ram
TTITLE6=I'm Evil
EXTD=
EXTT0=
EXTT1=
EXTT2=
EXTT3=
EXTT4=
EXTT5=
EXTT6=
PLAYORDER=
